<svg xmlns="http://www.w3.org/2000/svg" width="800" height="800" viewBox="0 0 800 800" fill="none">
  <defs>
    <linearGradient id="desk" x1="96" y1="96" x2="710" y2="716" gradientUnits="userSpaceOnUse">
      <stop stop-color="#DCE8F0"/>
      <stop offset=".58" stop-color="#C8D7E2"/>
      <stop offset="1" stop-color="#B3C5D2"/>
    </linearGradient>
    <filter id="shadow" x="-20%" y="-20%" width="140%" height="140%">
      <feDropShadow dx="0" dy="28" stdDeviation="24" flood-color="#48606F" flood-opacity=".18"/>
    </filter>
  </defs>
  <rect width="800" height="800" rx="76" fill="url(#desk)"/>
  <circle cx="624" cy="168" r="84" fill="#D9EEF7" fill-opacity=".42"/>
  <circle cx="180" cy="650" r="110" fill="#D7E4EF" fill-opacity=".5"/>
  <g filter="url(#shadow)">
    <rect x="174" y="102" width="452" height="588" rx="28" fill="#FFFFFF"/>
    <rect x="174" y="102" width="452" height="588" rx="28" stroke="#D9E4EC" stroke-width="4"/>
  </g>
  <rect x="226" y="170" width="212" height="18" rx="9" fill="#1A2530"/>
  <rect x="226" y="208" width="306" height="10" rx="5" fill="#485868" fill-opacity=".54"/>
  <rect x="226" y="230" width="286" height="10" rx="5" fill="#485868" fill-opacity=".32"/>
  <rect x="226" y="280" width="144" height="12" rx="6" fill="#5B8CA2"/>
  <rect x="226" y="314" width="118" height="118" rx="18" fill="#EFF5F8"/>
  <rect x="244" y="386" width="18" height="28" rx="9" fill="#2F7384"/>
  <rect x="272" y="358" width="18" height="56" rx="9" fill="#88B5C4"/>
  <rect x="300" y="330" width="18" height="84" rx="9" fill="#4D86A0"/>
  <rect x="342" y="314" width="230" height="12" rx="6" fill="#3D4C59" fill-opacity=".55"/>
  <rect x="342" y="342" width="198" height="10" rx="5" fill="#3D4C59" fill-opacity=".28"/>
  <rect x="342" y="364" width="212" height="10" rx="5" fill="#3D4C59" fill-opacity=".28"/>
  <rect x="342" y="386" width="164" height="10" rx="5" fill="#3D4C59" fill-opacity=".28"/>
  <rect x="226" y="470" width="346" height="12" rx="6" fill="#1A2530"/>
  <rect x="226" y="500" width="312" height="10" rx="5" fill="#435361" fill-opacity=".36"/>
  <rect x="226" y="522" width="334" height="10" rx="5" fill="#435361" fill-opacity=".36"/>
  <rect x="226" y="544" width="286" height="10" rx="5" fill="#435361" fill-opacity=".36"/>
  <path d="M470 590C496 560 540 560 564 592" stroke="#5B8CA2" stroke-width="8" stroke-linecap="round"/>
  <path d="M468 592L520 640L578 562" stroke="#5B8CA2" stroke-width="8" stroke-linecap="round" stroke-linejoin="round"/>
  <rect x="226" y="608" width="132" height="26" rx="13" fill="#EFF5F8"/>
  <rect x="370" y="608" width="118" height="26" rx="13" fill="#F3F8FB"/>
  <rect x="518" y="114" width="86" height="22" rx="11" fill="#243543"/>
</svg>
